<?xml version="1.0" encoding="UTF-8"?>
<svg version="1.1" xmlns="http://www.w3.org/2000/svg" width="631" height="636">
<path d="M0 0 C0.62358398 0.56187012 1.24716797 1.12374023 1.88964844 1.70263672 C15.58795529 14.08420168 27.88530331 27.25609735 39 42 C39.66829834 42.87495117 39.66829834 42.87495117 40.35009766 43.76757812 C81.91318314 98.26771613 104.19056652 164.88530348 104.18530273 233.31445312 C104.18747585 236.46498406 104.20564548 239.61515632 104.22460938 242.765625 C104.272031 259.60773861 103.08945982 276.13704104 100.25 292.75 C100.08081055 293.74257813 99.91162109 294.73515625 99.73730469 295.7578125 C89.93183575 351.07250052 65.26250906 401.20198147 29.47363281 444.21337891 C28.11538095 445.86011302 26.78261975 447.52308055 25.4609375 449.19921875 C21.65431811 453.9934662 17.86754396 458.22993391 13.15234375 462.1328125 C10.5194661 464.4168697 8.12245671 466.88132802 5.6875 469.375 C0.44888582 474.69205814 -5.15247621 479.37071033 -11 484 C-12.1681671 484.9565038 -13.33475456 485.91493909 -14.5 486.875 C-22.98623285 493.83129525 -31.71973121 500.14651826 -41 506 C-41.5868457 506.37189453 -42.17369141 506.74378906 -42.77832031 507.12695312 C-50.73913828 512.1339235 -58.94128851 516.66022874 -67.25 521.0625 C-68.16797363 521.55226318 -69.08594727 522.04202637 -70.03173828 522.54663086 C-70.8926709 522.99659424 -71.75360352 523.44655762 -72.640625 523.91015625 C-73.40922852 524.31371338 -74.17783203 524.71727051 -74.96972656 525.13305664 C-77 526 -77 526 -80 526 C-80.2088764 517.75935516 -80.36860936 509.51982218 -80.46630955 501.27718163 C-80.51321163 497.4492966 -80.57677372 493.62322681 -80.67895508 489.79638672 C-80.7770211 486.10038177 -80.83061017 482.40611767 -80.85389519 478.7089119 C-80.87047844 477.30130218 -80.90286737 475.89378405 -80.95157051 474.4869194 C-81.31779867 463.46573197 -81.31779867 463.46573197 -78.07066345 459.8540802 C-75.77096446 458.30565433 -73.52095701 457.14265826 -71 456 C-69.71247989 455.17857836 -68.43713362 454.33724236 -67.18359375 453.46484375 C-66.57298096 453.05500244 -65.96236816 452.64516113 -65.33325195 452.22290039 C-51.21500887 442.65013158 -38.32106683 431.77648929 -26 420 C-25.25234375 419.29359375 -24.5046875 418.5871875 -23.734375 417.859375 C-18.33613001 412.63115347 -13.68331172 406.86655126 -9 401 C-8.35289062 400.22011719 -7.70578125 399.44023437 -7.0390625 398.63671875 C24.47617046 360.36822159 43.81771341 312.17605353 49 263 C49.0928125 262.15719482 49.185625 261.31438965 49.28125 260.44604492 C55.10308476 203.21013195 39.50327735 138.56645327 5 92 C4.56365234 91.39961914 4.12730469 90.79923828 3.67773438 90.18066406 C0.19662145 85.39236733 -3.36637104 80.67352409 -7 76 C-7.42055664 75.45794922 -7.84111328 74.91589844 -8.27441406 74.35742188 C-20.53282845 58.76304581 -35.12003789 43.83765075 -51.25146484 32.25683594 C-53.14883592 30.89301768 -55.0207589 29.49759862 -56.89453125 28.1015625 C-99.95850056 -3.56116597 -150.89922266 -19.5483074 -204 -22 C-204.71333496 -22.03464355 -205.42666992 -22.06928711 -206.16162109 -22.10498047 C-247.72209356 -23.84161064 -292.52028152 -13.6347078 -329.15283203 6.01757812 C-330.98400623 6.99149366 -332.8300244 7.92890188 -334.68359375 8.859375 C-349.81608506 16.54680076 -363.86070952 26.28163693 -377 37 C-377.55606934 37.45310547 -378.11213867 37.90621094 -378.68505859 38.37304688 C-431.5778593 81.83188228 -465.25919239 145.88649056 -472 214 C-478.49179264 285.03228926 -453.63675915 352.09760681 -409.03515625 406.66796875 C-406.94919446 409.12268323 -406.94919446 409.12268323 -404.24609375 411.67578125 C-402 414 -402 414 -402 416 C-401.34 416 -400.68 416 -400 416 C-398.7734375 417.28515625 -398.7734375 417.28515625 -397.375 419.0625 C-393.93547723 423.19321873 -390.09537013 426.53518686 -386 430 C-384.90762356 430.95301837 -383.8165813 431.90756722 -382.7265625 432.86328125 C-376.06904363 438.67842392 -369.37783599 444.11041798 -362 449 C-360.92878906 449.74507812 -359.85757813 450.49015625 -358.75390625 451.2578125 C-312.06871116 483.52693799 -259.94054273 494.76237829 -204 497 C-204 330.02 -204 163.04 -204 -9 C-173.53522635 -6.65655587 -173.53522635 -6.65655587 -163.5625 -4.6875 C-162.46486328 -4.49994141 -161.36722656 -4.31238281 -160.23632812 -4.11914062 C-159.19025391 -3.91869141 -158.14417969 -3.71824219 -157.06640625 -3.51171875 C-155.7043103 -3.25588013 -155.7043103 -3.25588013 -154.31469727 -2.99487305 C-150.57480888 -1.38744291 -149.45583774 1.90840732 -147.936203 5.54747009 C-147.61202896 6.45211502 -147.28785492 7.35675995 -146.95385742 8.28881836 C-146.57835754 9.32828613 -146.20285767 10.36775391 -145.815979 11.4387207 C-145.41651062 12.56109131 -145.01704224 13.68346191 -144.60546875 14.83984375 C-144.18110535 16.01836914 -143.75674194 17.19689453 -143.31951904 18.41113281 C-142.40959481 20.93979052 -141.50152692 23.46902228 -140.59664917 25.9994812 C-139.18307771 29.95216264 -137.76248553 33.90229395 -136.34008789 37.85180664 C-135.98632662 38.83411711 -135.98632662 38.83411711 -135.62541866 39.83627224 C-135.14944182 41.15787743 -134.67343726 42.47947264 -134.19740486 43.80105782 C-133.48410832 45.7819906 -132.77146695 47.7631581 -132.0589447 49.74436951 C-128.0712104 60.82826682 -124.0235359 71.88947823 -119.9375 82.9375 C-119.65667572 83.69707001 -119.37585144 84.45664001 -119.08651733 85.23922729 C-118.05609408 88.02602515 -117.02560883 90.81279968 -115.9941864 93.59922791 C-113.97461802 99.05839114 -111.98210147 104.52714479 -110 110 C-106.50961418 101.82534213 -103.31441291 93.58410101 -100.3125 85.21875 C-99.88751221 84.04340698 -99.46252441 82.86806396 -99.0246582 81.65710449 C-97.68034082 77.93906085 -96.33969575 74.21971121 -95 70.5 C-93.23252002 65.59253122 -91.46116559 60.68648609 -89.6875 55.78125 C-89.29151611 54.67777222 -88.89553223 53.57429443 -88.48754883 52.43737793 C-85.8691211 45.19727415 -83.02320925 38.08050702 -80 31 C-78.68 31 -77.36 31 -76 31 C-76 31.66 -76 32.32 -76 33 C-74.96939453 33.33837891 -74.96939453 33.33837891 -73.91796875 33.68359375 C-70.29469314 35.31819064 -67.38502955 37.58658632 -64.3125 40.0625 C-63.69745605 40.55202148 -63.08241211 41.04154297 -62.44873047 41.54589844 C-57.90438061 45.19416263 -53.52789122 48.99971381 -49.23828125 52.9453125 C-47.12960473 54.88102603 -44.98213672 56.75819976 -42.8125 58.625 C-36.3132366 64.31835474 -30.71230183 70.39866893 -25.3046875 77.14453125 C-23.85888525 78.93585573 -22.38823841 80.70770206 -20.8828125 82.44921875 C15.54977078 124.95389925 32.21329185 181.50457612 32.25 236.6875 C32.25101212 238.05584991 32.25101212 238.05584991 32.25204468 239.45184326 C32.23518068 253.8297389 31.63424738 267.83160411 29 282 C28.82839355 282.94891113 28.65678711 283.89782227 28.47998047 284.87548828 C21.99640309 319.77324215 7.99387194 354.92086704 -14 383 C-14.75539063 384.01835937 -15.51078125 385.03671875 -16.2890625 386.0859375 C-22.34653407 394.22635051 -28.95614118 401.70314416 -36 409 C-36.56799316 409.58990723 -37.13598633 410.17981445 -37.72119141 410.78759766 C-47.76031402 421.15960082 -58.30669257 430.17023133 -70.0625 438.5625 C-71.18942261 439.36905029 -71.18942261 439.36905029 -72.33911133 440.19189453 C-73.04318115 440.6867334 -73.74725098 441.18157227 -74.47265625 441.69140625 C-75.10437744 442.13685791 -75.73609863 442.58230957 -76.38696289 443.04125977 C-78 444 -78 444 -80 444 C-80.27956926 435.34180557 -80.4920034 426.68519167 -80.62174606 418.02344894 C-80.6840597 414.00000002 -80.76836773 409.9796645 -80.90527344 405.95800781 C-81.03687232 402.06733558 -81.10764681 398.17963117 -81.13852692 394.28690338 C-81.16049194 392.81148818 -81.20338965 391.33621339 -81.26876068 389.86208344 C-81.54045481 383.47394974 -81.65733478 377.59742409 -77.36332703 372.46836853 C-74.44477936 369.39507669 -71.24691239 366.7182075 -68 364 C-63.98010372 359.64377025 -60.51640984 354.76812765 -57 350 C-55.82630859 348.40865234 -55.82630859 348.40865234 -54.62890625 346.78515625 C-26.55918426 307.42916823 -13.50180687 257.95063 -21 210 C-26.51330702 178.50089625 -38.05604939 149.87044077 -57 124 C-58.90120738 126.85181107 -59.84672477 129.12395934 -60.94506836 132.34277344 C-61.32473755 133.44834595 -61.70440674 134.55391846 -62.09558105 135.69299316 C-62.50618774 136.90289917 -62.91679443 138.11280518 -63.33984375 139.359375 C-63.77804545 140.64023189 -64.21665349 141.92094984 -64.65563965 143.20153809 C-65.59587508 145.94687949 -66.53345888 148.69310648 -67.46896362 151.44006348 C-68.94445996 155.77240035 -70.42583453 160.1027113 -71.90844727 164.43261719 C-73.43064433 168.878749 -74.95264473 173.32494651 -76.47276306 177.77178955 C-81.03340543 191.11179624 -85.62636155 204.440475 -90.23269653 217.76477051 C-91.40379837 221.15250864 -92.5739333 224.54057943 -93.74389648 227.92871094 C-98.13172288 240.63002479 -102.54946474 253.32052309 -107 266 C-107.99 266 -108.98 266 -110 266 C-110.19806244 265.45735001 -110.39612488 264.91470001 -110.60018921 264.35560608 C-120.77553784 236.47876872 -130.96840143 208.60851266 -141.21044922 180.75610352 C-141.57041489 179.77707062 -141.93038055 178.79803772 -142.30125427 177.78933716 C-142.96321186 175.98911207 -143.62535257 174.18895431 -144.28773499 172.3888855 C-146.53998021 166.26449657 -148.76994971 160.1326383 -151 154 C-151.33 284.68 -151.66 415.36 -152 550 C-184.06994461 555.13119114 -184.06994461 555.13119114 -198.1875 555.203125 C-199.11990005 555.21018463 -200.05230011 555.21724426 -201.01295471 555.22451782 C-293.45832077 555.76505259 -373.86896445 522.9421908 -439.75 458.4375 C-444.88809259 453.24009321 -449.46838575 447.72610894 -454 442 C-454.94485655 440.8436134 -455.891567 439.68873983 -456.83984375 438.53515625 C-503.08560294 382.01256168 -527.19186965 310.82846286 -527.25 238 C-527.25067474 237.22642151 -527.25134949 236.45284302 -527.25204468 235.65582275 C-527.15281657 163.03754223 -502.96882442 92.41866344 -457 36 C-456.34572021 35.19127441 -456.34572021 35.19127441 -455.67822266 34.36621094 C-448.41444855 25.47252935 -440.46563513 17.26049701 -432.375 9.125 C-431.65348251 8.39558197 -431.65348251 8.39558197 -430.91738892 7.65142822 C-424.29441809 0.97241546 -417.38556415 -5.17110163 -410 -11 C-408.93995633 -11.85789028 -407.88002885 -12.71592418 -406.8203125 -13.57421875 C-392.69805725 -24.64688555 -377.64657008 -34.54672426 -361.82373047 -43.01171875 C-360.07643233 -43.95858125 -358.35195517 -44.9471961 -356.62890625 -45.9375 C-321.55947622 -65.68146969 -280.79551585 -75.91715738 -241 -80 C-239.76636719 -80.13148437 -238.53273438 -80.26296875 -237.26171875 -80.3984375 C-151.16770757 -87.74671527 -63.8407489 -57.96383616 0 0 Z " fill="#96A662" transform="translate(527,81)"/>
<path d="M0 0 C0 162.03 0 324.06 0 491 C-65.18341731 486.92603642 -124.16242744 458.98132799 -168.6875 411.125 C-199.68142936 375.45832175 -219.78884572 333.54253111 -228 287 C-228.20753906 285.86691406 -228.41507812 284.73382813 -228.62890625 283.56640625 C-229.16606778 278.40400122 -229 273.19027632 -229 268 C-212.5 268 -196 268 -179 268 C-178.13375 272.08375 -177.2675 276.1675 -176.375 280.375 C-165.05423309 331.88772922 -136.13014819 375.93990443 -91.72900391 404.90283203 C-78.84889692 413.07611653 -65.14016603 419.34393359 -51 425 C-51.33 306.53 -51.66 188.06 -52 66 C-62.395 70.455 -62.395 70.455 -73 75 C-73.99 75 -74.98 75 -76 75 C-76 55.53 -76 36.06 -76 16 C-68.86367953 13.14547181 -62.07389293 10.63716972 -54.75 8.5 C-53.7180249 8.19884277 -52.6860498 7.89768555 -51.62280273 7.58740234 C-34.646687 2.77920563 -17.64534533 0 0 0 Z " fill="#97A763" transform="translate(303,73)"/>
</svg>
